<svg xmlns="http://www.w3.org/2000/svg" width="890.229" height="1025.144" viewBox="0 0 890.229 1025.144">
  <g id="grouppa" transform="translate(-20007.867 -5258.475)">
    <g id="Group_225" data-name="Group 225" transform="translate(20400.467 5593.585)">
      <path id="Union_15" data-name="Union 15" d="M105,553H62.376V508.414a1,1,0,0,0-.32-.733,10.377,10.377,0,0,0-20.151,0,1,1,0,0,0-.32.733V553H0V361.971a2,2,0,0,1,2-2H3.118V174.03a5.005,5.005,0,0,1,5-5h3.317V51a3,3,0,0,1,3-3h8.3L52.5,0,82.266,48h8.3a3,3,0,0,1,3,3V169.03h2.277a5.006,5.006,0,0,1,5,5V359.971H103a2,2,0,0,1,2,2V553h0ZM73.093,444.033a1,1,0,0,0-.32.733v46.672H93.564V444.767a1,1,0,0,0-.32-.733,10.377,10.377,0,0,0-20.151,0Zm-31.188,0a1,1,0,0,0-.32.733v46.672H62.376V444.767a1,1,0,0,0-.32-.733,10.377,10.377,0,0,0-20.151,0Zm-30.149,0a1,1,0,0,0-.32.733v46.672H32.227V444.767a1,1,0,0,0-.32-.733,10.377,10.377,0,0,0-20.151,0Zm61.337-64.69a1,1,0,0,0-.32.734v46.672H93.564V380.076a1,1,0,0,0-.32-.734,10.377,10.377,0,0,0-20.151,0Zm-31.189,0a1,1,0,0,0-.32.734v46.672H62.375V380.076a1,1,0,0,0-.32-.734,10.377,10.377,0,0,0-20.151,0Zm-30.148,0a1,1,0,0,0-.32.734v46.672H32.227V380.076a1,1,0,0,0-.32-.734,10.377,10.377,0,0,0-20.151,0Zm61.337-162.77a1,1,0,0,0-.32.734v119.71H93.564V217.306a1,1,0,0,0-.32-.734,10.377,10.377,0,0,0-20.151,0Zm-31.189,0a1,1,0,0,0-.32.734v119.71H62.376V217.306a1,1,0,0,0-.32-.734,10.377,10.377,0,0,0-20.151,0Zm-30.148,0a1,1,0,0,0-.32.734v119.71H32.227V217.306a1,1,0,0,0-.32-.734,10.377,10.377,0,0,0-20.151,0ZM68.867,79.021a1,1,0,0,0-.254.666v79.952H84.208V79.687a1,1,0,0,0-.253-.666c-.9-7.823-4-13.287-7.544-13.287S69.764,71.2,68.867,79.021ZM46,79.021a1,1,0,0,0-.254.666v79.952H61.337V79.687a1,1,0,0,0-.254-.666c-.9-7.823-4-13.287-7.543-13.287S46.893,71.2,46,79.021Zm-24.951,0a1,1,0,0,0-.254.666v79.952H36.386V79.687a1,1,0,0,0-.254-.666c-.9-7.823-4-13.287-7.543-13.287S21.942,71.2,21.046,79.021Z" transform="translate(-0.467 0.415)" fill="#2a2a2a"/>
      <path id="Rectangle_2360" data-name="Rectangle 2360" d="M2,0H104a2,2,0,0,1,2,2V193a0,0,0,0,1,0,0H0a0,0,0,0,1,0,0V2A2,2,0,0,1,2,0Z" transform="translate(-0.467 360.415)" fill="none"/>
    </g>
    <path id="Path_697" data-name="Path 697" d="M445.115,890.229a452.285,452.285,0,0,1-45.51-2.3,446.291,446.291,0,0,1-44.2-6.745c-14.34-2.934-28.692-6.625-42.657-10.968-13.809-4.3-27.568-9.331-40.9-14.968A446.415,446.415,0,0,1,34.979,618.373c-5.637-13.327-10.673-27.086-14.968-40.9-4.344-13.966-8.034-28.318-10.968-42.657a446.291,446.291,0,0,1-6.745-44.2,451.79,451.79,0,0,1,0-91.021,446.288,446.288,0,0,1,6.745-44.2c2.934-14.34,6.625-28.692,10.968-42.657,4.3-13.809,9.331-27.568,14.968-40.9A446.415,446.415,0,0,1,271.856,34.979c13.327-5.637,27.086-10.673,40.9-14.968,13.966-4.344,28.318-8.034,42.657-10.968A446.288,446.288,0,0,1,399.6,2.3a451.79,451.79,0,0,1,91.021,0,446.291,446.291,0,0,1,44.2,6.745c14.34,2.934,28.692,6.625,42.657,10.968,13.809,4.3,27.568,9.331,40.9,14.968A446.415,446.415,0,0,1,855.25,271.856c5.637,13.327,10.673,27.086,14.968,40.9,4.344,13.966,8.034,28.318,10.968,42.657a446.291,446.291,0,0,1,6.745,44.2,451.794,451.794,0,0,1,0,91.021,446.3,446.3,0,0,1-6.745,44.2c-2.934,14.34-6.625,28.692-10.968,42.657-4.3,13.809-9.331,27.568-14.968,40.9A446.415,446.415,0,0,1,618.373,855.25c-13.327,5.637-27.086,10.673-40.9,14.968-13.966,4.344-28.318,8.034-42.657,10.968a446.3,446.3,0,0,1-44.2,6.745A452.285,452.285,0,0,1,445.115,890.229Zm-.221-878.394c-238.79,0-433.059,194.27-433.059,433.059S206.1,877.954,444.894,877.954s433.059-194.27,433.059-433.059S683.683,11.836,444.894,11.836Z" transform="translate(20007.867 5393.39)" fill="#2a2a2a"/>
    <path id="Path_696" data-name="Path 696" d="M415.424,830.848a422.1,422.1,0,0,1-42.475-2.145A414.8,414.8,0,0,1,2.145,457.9a421.656,421.656,0,0,1,0-84.949,414.8,414.8,0,0,1,370.8-370.8,421.649,421.649,0,0,1,84.949,0,414.8,414.8,0,0,1,370.8,370.8,421.653,421.653,0,0,1,0,84.949A414.8,414.8,0,0,1,457.9,828.7,422.1,422.1,0,0,1,415.424,830.848ZM415.2,108.317c-169.21,0-306.872,137.65-306.872,306.846S245.987,722.009,415.2,722.009s306.871-137.65,306.871-306.846S584.406,108.317,415.2,108.317Z" transform="translate(20037.232 5423.449)" fill="#2a2a2a"/>
    <path id="Path_699" data-name="Path 699" d="M88.8-57.772H45.188l2.288,19.019H66.352L64.207-26.026a8.989,8.989,0,0,1-8.437,7.15H29.315a5.883,5.883,0,0,1-5.863-7.15l7.722-44.33a8.965,8.965,0,0,1,8.437-7.15H75.075l9.152-19.019H42.757c-14.157,0-27.885,11.583-30.316,25.74L4.433-25.74C2-11.583,11.583,0,25.74,0H52.91C67.067,0,80.652-11.583,83.083-25.74Zm91.663,3v.429h0Zm2.86-16.445v0ZM173.888,0,161.161-31.317c9.581-4,17.3-12.87,19.3-23.023v-.429l2.86-16.016v-.429c2.288-14.014-7.15-25.311-21.164-25.311h-52.91L92.235,0h18.876L124.7-77.506h33.6c4,0,6.578,3.146,5.863,7.15L161.59-55.2a8.84,8.84,0,0,1-8.437,7.15H132.7l-9.152,19.019h16.731L152.009,0ZM252.4-96.525h-24.31c-14.157,0-27.885,11.583-30.316,25.74L189.761-25.74C187.33-11.583,196.911,0,211.068,0h24.31c14.157,0,27.742-11.583,30.173-25.74l8.008-45.045C275.99-84.942,266.552-96.525,252.4-96.525Zm-5.72,70.5a8.989,8.989,0,0,1-8.437,7.15h-23.6a5.883,5.883,0,0,1-5.863-7.15l7.722-44.33a8.965,8.965,0,0,1,8.437-7.15h23.6c4,0,6.578,3.146,5.863,7.15Zm116.545-70.5H344.2l-12.441,70.5a8.989,8.989,0,0,1-8.437,7.15h-19.3a5.883,5.883,0,0,1-5.863-7.15l12.441-70.5H291.72L279.136-25.74C276.705-11.583,286.286,0,300.443,0h20.02c14.157,0,27.742-11.583,30.173-25.74Zm84.8,41.756v.429h0Zm2.86-16.445v0Zm0,.429v-.429c2.288-14.014-7.15-25.311-21.164-25.311h-52.91L359.788,0h18.876l13.585-77.506h33.605c4,0,6.578,3.146,5.863,7.15L429.143-55.2a8.84,8.84,0,0,1-8.437,7.15H400.257l-9.152,19.019h26.6c14.014,0,27.456-11.3,30.316-25.311v-.429Zm91.52,0c2.431-14.157-7.007-25.74-21.164-25.74h-27.17c-14.157,0-27.885,11.583-30.316,25.74L451.308,0h18.876l12.3-70.356a8.965,8.965,0,0,1,8.437-7.15h26.455c4,0,6.578,3.146,5.863,7.15l-3.861,22.308H491.491l-9.152,19.019h33.6L510.939,0h19.019Z" transform="translate(20180 5355)" fill="#2a2a2a"/>
  </g>
</svg>
